<mxfile host="app.diagrams.net" modified="2023-02-10T16:04:47.440Z" agent="5.0 (Windows NT 10.0; Win64; x64) AppleWebKit/537.36 (KHTML, like Gecko) Chrome/110.0.0.0 Safari/537.36" etag="bDLkYOBgFK1AzCQoRiU-" version="20.8.20" type="github">
  <diagram name="第 1 页" id="nWglFahr5ZzKUO4iZ48Q">
    <mxGraphModel dx="2199" dy="748" grid="1" gridSize="10" guides="1" tooltips="1" connect="1" arrows="1" fold="1" page="1" pageScale="1" pageWidth="827" pageHeight="1169" background="#FFFFFF" math="0" shadow="0">
      <root>
        <mxCell id="0" />
        <mxCell id="1" parent="0" />
        <mxCell id="xfM_xM7a8Bo3DEMRsw4I-65" value="" style="rounded=0;whiteSpace=wrap;html=1;shadow=0;glass=0;comic=0;sketch=0;dashed=1;dashPattern=12 12;strokeWidth=2;strokeColor=#000000;" vertex="1" parent="1">
          <mxGeometry x="214.75" y="480.75" width="341.5" height="74.25" as="geometry" />
        </mxCell>
        <mxCell id="xfM_xM7a8Bo3DEMRsw4I-59" value="" style="rounded=0;whiteSpace=wrap;html=1;shadow=0;glass=0;comic=0;sketch=0;dashed=1;dashPattern=12 12;strokeColor=#00a3a3;strokeWidth=2;" vertex="1" parent="1">
          <mxGeometry x="-244" y="120" width="400" height="330" as="geometry" />
        </mxCell>
        <mxCell id="xfM_xM7a8Bo3DEMRsw4I-46" value="" style="rounded=0;whiteSpace=wrap;html=1;shadow=0;glass=0;comic=0;sketch=0;dashed=1;dashPattern=12 12;strokeWidth=2;strokeColor=#000000;" vertex="1" parent="1">
          <mxGeometry x="210.12" y="322" width="410" height="150" as="geometry" />
        </mxCell>
        <mxCell id="xfM_xM7a8Bo3DEMRsw4I-48" value="" style="rounded=0;whiteSpace=wrap;html=1;shadow=0;glass=0;comic=0;sketch=0;dashed=1;dashPattern=12 12;strokeWidth=2;strokeColor=#dd8888;" vertex="1" parent="1">
          <mxGeometry x="230.12" y="342" width="90" height="333" as="geometry" />
        </mxCell>
        <mxCell id="xfM_xM7a8Bo3DEMRsw4I-2" style="edgeStyle=orthogonalEdgeStyle;rounded=0;orthogonalLoop=1;jettySize=auto;html=1;entryX=0.5;entryY=0;entryDx=0;entryDy=0;fontSize=14;" edge="1" parent="1" source="pH4zTgc9KSJ8u6hjIEn5-2" target="xfM_xM7a8Bo3DEMRsw4I-1">
          <mxGeometry relative="1" as="geometry" />
        </mxCell>
        <mxCell id="xfM_xM7a8Bo3DEMRsw4I-13" style="edgeStyle=orthogonalEdgeStyle;rounded=0;orthogonalLoop=1;jettySize=auto;html=1;dashed=1;strokeWidth=1;fontSize=14;endArrow=none;endFill=0;" edge="1" parent="1" source="pH4zTgc9KSJ8u6hjIEn5-2" target="xfM_xM7a8Bo3DEMRsw4I-12">
          <mxGeometry relative="1" as="geometry" />
        </mxCell>
        <mxCell id="pH4zTgc9KSJ8u6hjIEn5-2" value="&lt;font style=&quot;font-size: 14px;&quot;&gt;主线程&lt;br&gt;epoll监听socket&lt;/font&gt;" style="rounded=1;whiteSpace=wrap;html=1;fillColor=#dae8fc;strokeColor=#6c8ebf;" parent="1" vertex="1">
          <mxGeometry x="-81.63" y="150" width="137.5" height="110" as="geometry" />
        </mxCell>
        <mxCell id="pH4zTgc9KSJ8u6hjIEn5-17" value="" style="rounded=0;whiteSpace=wrap;html=1;shadow=0;glass=0;comic=0;sketch=0;dashed=1;dashPattern=12 12;strokeWidth=2;" parent="1" vertex="1">
          <mxGeometry x="370" y="120" width="178.25" height="190" as="geometry" />
        </mxCell>
        <mxCell id="pH4zTgc9KSJ8u6hjIEn5-19" value="日志系统Log" style="text;html=1;align=center;verticalAlign=middle;resizable=0;points=[];autosize=1;strokeColor=none;fillColor=none;" parent="1" vertex="1">
          <mxGeometry x="432.62" y="83" width="90" height="30" as="geometry" />
        </mxCell>
        <mxCell id="pH4zTgc9KSJ8u6hjIEn5-20" value="请求队列" style="rounded=1;whiteSpace=wrap;html=1;shadow=0;glass=0;comic=0;sketch=0;align=center;fillColor=#d5e8d4;strokeColor=#82b366;" parent="1" vertex="1">
          <mxGeometry x="496.37" y="145" width="20" height="130" as="geometry" />
        </mxCell>
        <mxCell id="xfM_xM7a8Bo3DEMRsw4I-60" style="edgeStyle=orthogonalEdgeStyle;rounded=0;orthogonalLoop=1;jettySize=auto;html=1;entryX=1;entryY=0.285;entryDx=0;entryDy=0;entryPerimeter=0;strokeWidth=2;fontSize=12;endArrow=classic;endFill=1;strokeColor=#00a3a3;" edge="1" parent="1" source="pH4zTgc9KSJ8u6hjIEn5-26" target="xfM_xM7a8Bo3DEMRsw4I-59">
          <mxGeometry relative="1" as="geometry" />
        </mxCell>
        <mxCell id="pH4zTgc9KSJ8u6hjIEn5-26" value="" style="rounded=0;whiteSpace=wrap;html=1;shadow=0;glass=0;comic=0;sketch=0;dashed=1;dashPattern=12 12;strokeColor=#00a3a3;strokeWidth=2;" parent="1" vertex="1">
          <mxGeometry x="206.25" y="130" width="263.75" height="170" as="geometry" />
        </mxCell>
        <mxCell id="pH4zTgc9KSJ8u6hjIEn5-27" value="线程池ThreadPool" style="text;html=1;align=center;verticalAlign=middle;resizable=0;points=[];autosize=1;strokeColor=none;fillColor=none;" parent="1" vertex="1">
          <mxGeometry x="221.25" y="83" width="120" height="30" as="geometry" />
        </mxCell>
        <mxCell id="pH4zTgc9KSJ8u6hjIEn5-28" value="请求队列" style="rounded=1;whiteSpace=wrap;html=1;shadow=0;glass=0;comic=0;sketch=0;align=center;fillColor=#d5e8d4;strokeColor=#82b366;" parent="1" vertex="1">
          <mxGeometry x="326.25" y="150" width="20" height="130" as="geometry" />
        </mxCell>
        <mxCell id="pH4zTgc9KSJ8u6hjIEn5-22" value="I/O处理单元" style="rounded=1;whiteSpace=wrap;html=1;shadow=0;glass=0;comic=0;sketch=0;align=center;fillColor=#ffe6cc;strokeColor=#d79b00;" parent="1" vertex="1">
          <mxGeometry x="221.25" y="150" width="70" height="130" as="geometry" />
        </mxCell>
        <mxCell id="xfM_xM7a8Bo3DEMRsw4I-1" value="请求队列（queue实现，信号量唤醒任务）" style="rounded=1;whiteSpace=wrap;html=1;fillColor=#dae8fc;strokeColor=#6c8ebf;" vertex="1" parent="1">
          <mxGeometry x="-172.88" y="281" width="320" height="50" as="geometry" />
        </mxCell>
        <mxCell id="xfM_xM7a8Bo3DEMRsw4I-8" value="&lt;font style=&quot;font-size: 12px;&quot;&gt;同步线程&lt;/font&gt;" style="text;html=1;align=center;verticalAlign=middle;resizable=0;points=[];autosize=1;strokeColor=none;fillColor=none;fontSize=14;" vertex="1" parent="1">
          <mxGeometry x="-242.88" y="372" width="70" height="30" as="geometry" />
        </mxCell>
        <mxCell id="xfM_xM7a8Bo3DEMRsw4I-11" style="edgeStyle=orthogonalEdgeStyle;rounded=0;orthogonalLoop=1;jettySize=auto;html=1;entryX=1.021;entryY=0.539;entryDx=0;entryDy=0;entryPerimeter=0;dashed=1;strokeWidth=1;fontSize=14;endArrow=none;endFill=0;" edge="1" parent="1" source="xfM_xM7a8Bo3DEMRsw4I-5" target="xfM_xM7a8Bo3DEMRsw4I-8">
          <mxGeometry relative="1" as="geometry" />
        </mxCell>
        <mxCell id="xfM_xM7a8Bo3DEMRsw4I-5" value="" style="rounded=0;whiteSpace=wrap;html=1;shadow=0;glass=0;comic=0;sketch=0;dashed=1;dashPattern=12 12;strokeColor=#de8888;strokeWidth=2;" vertex="1" parent="1">
          <mxGeometry x="-151.63" y="349" width="280" height="80" as="geometry" />
        </mxCell>
        <mxCell id="pH4zTgc9KSJ8u6hjIEn5-15" value="工作线程" style="rounded=1;whiteSpace=wrap;html=1;fillColor=#dae8fc;strokeColor=#6c8ebf;" parent="1" vertex="1">
          <mxGeometry x="34.62" y="359" width="75" height="60" as="geometry" />
        </mxCell>
        <mxCell id="xfM_xM7a8Bo3DEMRsw4I-3" style="edgeStyle=orthogonalEdgeStyle;rounded=0;orthogonalLoop=1;jettySize=auto;html=1;fontSize=14;dashed=1;strokeWidth=2;endArrow=none;endFill=0;" edge="1" parent="1">
          <mxGeometry relative="1" as="geometry">
            <mxPoint x="-35.38" y="390" as="sourcePoint" />
            <mxPoint x="24.619999999999997" y="390" as="targetPoint" />
          </mxGeometry>
        </mxCell>
        <mxCell id="pH4zTgc9KSJ8u6hjIEn5-16" value="工作线程" style="rounded=1;whiteSpace=wrap;html=1;fillColor=#dae8fc;strokeColor=#6c8ebf;" parent="1" vertex="1">
          <mxGeometry x="-135.38" y="359" width="80" height="60" as="geometry" />
        </mxCell>
        <mxCell id="xfM_xM7a8Bo3DEMRsw4I-12" value="&lt;font style=&quot;font-size: 12px;&quot;&gt;同步IO&lt;br&gt;异步线程&lt;/font&gt;" style="text;html=1;align=center;verticalAlign=middle;resizable=0;points=[];autosize=1;strokeColor=none;fillColor=none;fontSize=14;" vertex="1" parent="1">
          <mxGeometry x="-205.38" y="180" width="70" height="50" as="geometry" />
        </mxCell>
        <mxCell id="xfM_xM7a8Bo3DEMRsw4I-14" style="edgeStyle=orthogonalEdgeStyle;rounded=0;orthogonalLoop=1;jettySize=auto;html=1;entryX=0.5;entryY=0;entryDx=0;entryDy=0;strokeWidth=1;fontSize=12;endArrow=classic;endFill=1;" edge="1" parent="1" target="pH4zTgc9KSJ8u6hjIEn5-16">
          <mxGeometry relative="1" as="geometry">
            <mxPoint x="-95.63" y="331" as="sourcePoint" />
            <Array as="points">
              <mxPoint x="-95.63" y="331" />
            </Array>
          </mxGeometry>
        </mxCell>
        <mxCell id="xfM_xM7a8Bo3DEMRsw4I-15" style="edgeStyle=orthogonalEdgeStyle;rounded=0;orthogonalLoop=1;jettySize=auto;html=1;entryX=0.5;entryY=0;entryDx=0;entryDy=0;strokeWidth=1;fontSize=12;endArrow=classic;endFill=1;" edge="1" parent="1" target="pH4zTgc9KSJ8u6hjIEn5-15">
          <mxGeometry relative="1" as="geometry">
            <mxPoint x="72.37" y="331" as="sourcePoint" />
            <Array as="points">
              <mxPoint x="72.37" y="331" />
            </Array>
          </mxGeometry>
        </mxCell>
        <mxCell id="xfM_xM7a8Bo3DEMRsw4I-19" style="edgeStyle=orthogonalEdgeStyle;rounded=0;orthogonalLoop=1;jettySize=auto;html=1;entryX=0;entryY=0.5;entryDx=0;entryDy=0;strokeWidth=1;fontSize=12;endArrow=classic;endFill=1;" edge="1" parent="1" source="xfM_xM7a8Bo3DEMRsw4I-16" target="xfM_xM7a8Bo3DEMRsw4I-18">
          <mxGeometry relative="1" as="geometry" />
        </mxCell>
        <mxCell id="xfM_xM7a8Bo3DEMRsw4I-16" value="日志输出" style="rounded=1;whiteSpace=wrap;html=1;fillColor=#dae8fc;strokeColor=#6c8ebf;" vertex="1" parent="1">
          <mxGeometry x="237.62" y="365" width="75" height="40" as="geometry" />
        </mxCell>
        <mxCell id="xfM_xM7a8Bo3DEMRsw4I-21" value="" style="edgeStyle=orthogonalEdgeStyle;rounded=0;orthogonalLoop=1;jettySize=auto;html=1;strokeWidth=1;fontSize=12;endArrow=classic;endFill=1;" edge="1" parent="1" source="xfM_xM7a8Bo3DEMRsw4I-18" target="xfM_xM7a8Bo3DEMRsw4I-20">
          <mxGeometry relative="1" as="geometry" />
        </mxCell>
        <mxCell id="xfM_xM7a8Bo3DEMRsw4I-18" value="请求队列（自定义阻塞队列，deque实现队列，条件变量唤醒任务）" style="rounded=1;whiteSpace=wrap;html=1;fillColor=#dae8fc;strokeColor=#6c8ebf;" vertex="1" parent="1">
          <mxGeometry x="382.62" y="345" width="100" height="80" as="geometry" />
        </mxCell>
        <mxCell id="xfM_xM7a8Bo3DEMRsw4I-20" value="log文件" style="rounded=1;whiteSpace=wrap;html=1;fillColor=#dae8fc;strokeColor=#6c8ebf;" vertex="1" parent="1">
          <mxGeometry x="522.62" y="365" width="80" height="40" as="geometry" />
        </mxCell>
        <mxCell id="xfM_xM7a8Bo3DEMRsw4I-23" style="edgeStyle=orthogonalEdgeStyle;rounded=0;orthogonalLoop=1;jettySize=auto;html=1;strokeWidth=1;fontSize=12;endArrow=classic;endFill=1;entryX=0.5;entryY=1;entryDx=0;entryDy=0;" edge="1" parent="1" source="xfM_xM7a8Bo3DEMRsw4I-22" target="xfM_xM7a8Bo3DEMRsw4I-20">
          <mxGeometry relative="1" as="geometry">
            <mxPoint x="562.62" y="455" as="targetPoint" />
            <Array as="points">
              <mxPoint x="347.62" y="455" />
              <mxPoint x="562.62" y="455" />
            </Array>
          </mxGeometry>
        </mxCell>
        <mxCell id="xfM_xM7a8Bo3DEMRsw4I-22" value="异步实现" style="text;html=1;align=center;verticalAlign=middle;resizable=0;points=[];autosize=1;strokeColor=none;fillColor=none;fontSize=12;" vertex="1" parent="1">
          <mxGeometry x="312.62" y="360" width="70" height="30" as="geometry" />
        </mxCell>
        <mxCell id="xfM_xM7a8Bo3DEMRsw4I-24" value="同步实现" style="text;html=1;align=center;verticalAlign=middle;resizable=0;points=[];autosize=1;strokeColor=none;fillColor=none;fontSize=12;" vertex="1" parent="1">
          <mxGeometry x="415.62" y="430" width="70" height="30" as="geometry" />
        </mxCell>
        <mxCell id="xfM_xM7a8Bo3DEMRsw4I-27" style="edgeStyle=orthogonalEdgeStyle;rounded=0;orthogonalLoop=1;jettySize=auto;html=1;entryX=0;entryY=0.5;entryDx=0;entryDy=0;strokeWidth=1;fontSize=12;endArrow=classic;endFill=1;" edge="1" parent="1" source="xfM_xM7a8Bo3DEMRsw4I-25" target="xfM_xM7a8Bo3DEMRsw4I-26">
          <mxGeometry relative="1" as="geometry" />
        </mxCell>
        <mxCell id="xfM_xM7a8Bo3DEMRsw4I-25" value="定时器处理非活动连接" style="rounded=1;whiteSpace=wrap;html=1;fillColor=#dae8fc;strokeColor=#6c8ebf;" vertex="1" parent="1">
          <mxGeometry x="236.37" y="495.5" width="80" height="45" as="geometry" />
        </mxCell>
        <mxCell id="xfM_xM7a8Bo3DEMRsw4I-26" value="基于向量实现的小顶堆用于定时器的超时断开" style="rounded=1;whiteSpace=wrap;html=1;fillColor=#dae8fc;strokeColor=#6c8ebf;" vertex="1" parent="1">
          <mxGeometry x="372.62" y="488" width="143.75" height="60" as="geometry" />
        </mxCell>
        <mxCell id="xfM_xM7a8Bo3DEMRsw4I-32" style="edgeStyle=orthogonalEdgeStyle;rounded=0;orthogonalLoop=1;jettySize=auto;html=1;entryX=0;entryY=0.5;entryDx=0;entryDy=0;strokeWidth=1;fontSize=12;endArrow=classic;endFill=1;" edge="1" parent="1" source="xfM_xM7a8Bo3DEMRsw4I-28" target="xfM_xM7a8Bo3DEMRsw4I-31">
          <mxGeometry relative="1" as="geometry" />
        </mxCell>
        <mxCell id="xfM_xM7a8Bo3DEMRsw4I-28" value="处理HTTP请求" style="rounded=1;whiteSpace=wrap;html=1;fillColor=#dae8fc;strokeColor=#6c8ebf;" vertex="1" parent="1">
          <mxGeometry x="237.62" y="611.75" width="62.5" height="47.5" as="geometry" />
        </mxCell>
        <mxCell id="xfM_xM7a8Bo3DEMRsw4I-31" value="GET&lt;br&gt;&lt;br&gt;&lt;br&gt;&lt;br&gt;&lt;br&gt;&lt;br&gt;POST" style="whiteSpace=wrap;html=1;fillColor=#dae8fc;strokeColor=#6c8ebf;rounded=1;fontSize=12;" vertex="1" parent="1">
          <mxGeometry x="341.37" y="573" width="120" height="125" as="geometry" />
        </mxCell>
        <mxCell id="xfM_xM7a8Bo3DEMRsw4I-35" value="响应客户端" style="rounded=1;whiteSpace=wrap;html=1;fillColor=#dae8fc;strokeColor=#6c8ebf;" vertex="1" parent="1">
          <mxGeometry x="516.37" y="578.75" width="105" height="30" as="geometry" />
        </mxCell>
        <mxCell id="xfM_xM7a8Bo3DEMRsw4I-40" style="edgeStyle=orthogonalEdgeStyle;rounded=0;orthogonalLoop=1;jettySize=auto;html=1;strokeWidth=1;fontSize=12;endArrow=classic;endFill=1;" edge="1" parent="1" source="xfM_xM7a8Bo3DEMRsw4I-36" target="xfM_xM7a8Bo3DEMRsw4I-39">
          <mxGeometry relative="1" as="geometry" />
        </mxCell>
        <mxCell id="xfM_xM7a8Bo3DEMRsw4I-36" value="Reactor模式、epoll监听读写操作" style="rounded=1;whiteSpace=wrap;html=1;fillColor=#dae8fc;strokeColor=#6c8ebf;" vertex="1" parent="1">
          <mxGeometry x="501.37" y="654.5" width="130" height="47.5" as="geometry" />
        </mxCell>
        <mxCell id="xfM_xM7a8Bo3DEMRsw4I-42" style="edgeStyle=orthogonalEdgeStyle;rounded=0;orthogonalLoop=1;jettySize=auto;html=1;strokeWidth=1;fontSize=12;endArrow=classic;endFill=1;" edge="1" parent="1" source="xfM_xM7a8Bo3DEMRsw4I-39" target="xfM_xM7a8Bo3DEMRsw4I-41">
          <mxGeometry relative="1" as="geometry" />
        </mxCell>
        <mxCell id="xfM_xM7a8Bo3DEMRsw4I-39" value="MySQL连接池queue，信号量判断" style="rounded=1;whiteSpace=wrap;html=1;fillColor=#dae8fc;strokeColor=#6c8ebf;fontSize=12;" vertex="1" parent="1">
          <mxGeometry x="671.37" y="654.5" width="130" height="47.5" as="geometry" />
        </mxCell>
        <mxCell id="xfM_xM7a8Bo3DEMRsw4I-43" style="edgeStyle=orthogonalEdgeStyle;rounded=0;orthogonalLoop=1;jettySize=auto;html=1;entryX=1;entryY=0.5;entryDx=0;entryDy=0;strokeWidth=1;fontSize=12;endArrow=classic;endFill=1;" edge="1" parent="1" source="xfM_xM7a8Bo3DEMRsw4I-41" target="xfM_xM7a8Bo3DEMRsw4I-35">
          <mxGeometry relative="1" as="geometry" />
        </mxCell>
        <mxCell id="xfM_xM7a8Bo3DEMRsw4I-41" value="访问数据库" style="rounded=1;whiteSpace=wrap;html=1;fillColor=#dae8fc;strokeColor=#6c8ebf;fontSize=12;" vertex="1" parent="1">
          <mxGeometry x="671.37" y="570" width="130" height="47.5" as="geometry" />
        </mxCell>
        <mxCell id="xfM_xM7a8Bo3DEMRsw4I-44" style="edgeStyle=orthogonalEdgeStyle;rounded=0;orthogonalLoop=1;jettySize=auto;html=1;strokeWidth=1;fontSize=12;endArrow=classic;endFill=1;entryX=0;entryY=0.5;entryDx=0;entryDy=0;" edge="1" parent="1" target="xfM_xM7a8Bo3DEMRsw4I-35">
          <mxGeometry relative="1" as="geometry">
            <mxPoint x="421.37" y="592.75" as="sourcePoint" />
            <mxPoint x="501.37" y="581.75" as="targetPoint" />
          </mxGeometry>
        </mxCell>
        <mxCell id="xfM_xM7a8Bo3DEMRsw4I-45" style="edgeStyle=orthogonalEdgeStyle;rounded=0;orthogonalLoop=1;jettySize=auto;html=1;strokeWidth=1;fontSize=12;endArrow=classic;endFill=1;" edge="1" parent="1">
          <mxGeometry relative="1" as="geometry">
            <mxPoint x="421.37" y="677.75" as="sourcePoint" />
            <mxPoint x="501.37" y="677.75" as="targetPoint" />
            <Array as="points">
              <mxPoint x="491.37" y="677.75" />
              <mxPoint x="491.37" y="678.75" />
            </Array>
          </mxGeometry>
        </mxCell>
        <mxCell id="xfM_xM7a8Bo3DEMRsw4I-50" value="" style="endArrow=none;dashed=1;html=1;rounded=0;strokeWidth=2;fontSize=12;dashPattern=12 12;" edge="1" parent="1">
          <mxGeometry width="50" height="50" relative="1" as="geometry">
            <mxPoint x="227.37" y="472" as="sourcePoint" />
            <mxPoint x="317.37" y="472" as="targetPoint" />
          </mxGeometry>
        </mxCell>
        <mxCell id="xfM_xM7a8Bo3DEMRsw4I-55" value="" style="endArrow=classic;html=1;rounded=0;strokeWidth=1;fontSize=12;strokeColor=#dd8888;" edge="1" parent="1">
          <mxGeometry width="50" height="50" relative="1" as="geometry">
            <mxPoint x="130.12" y="385" as="sourcePoint" />
            <mxPoint x="230.12" y="385" as="targetPoint" />
            <Array as="points">
              <mxPoint x="190.12" y="385" />
            </Array>
          </mxGeometry>
        </mxCell>
        <mxCell id="xfM_xM7a8Bo3DEMRsw4I-61" value="" style="endArrow=none;dashed=1;html=1;rounded=0;strokeColor=#000000;strokeWidth=2;fontSize=12;dashPattern=12 12;" edge="1" parent="1">
          <mxGeometry width="50" height="50" relative="1" as="geometry">
            <mxPoint x="370.62" y="290" as="sourcePoint" />
            <mxPoint x="370.62" y="130" as="targetPoint" />
          </mxGeometry>
        </mxCell>
        <mxCell id="xfM_xM7a8Bo3DEMRsw4I-62" value="逻辑单元" style="rounded=1;whiteSpace=wrap;html=1;shadow=0;glass=0;comic=0;sketch=0;align=center;fillColor=#ffe6cc;strokeColor=#d79b00;" vertex="1" parent="1">
          <mxGeometry x="388.25" y="154" width="61.75" height="121" as="geometry" />
        </mxCell>
      </root>
    </mxGraphModel>
  </diagram>
</mxfile>
